<?xml version="1.0" standalone="no"?>
<!DOCTYPE svg PUBLIC "-//W3C//DTD SVG 20010904//EN"
 "http://www.w3.org/TR/2001/REC-SVG-20010904/DTD/svg10.dtd">
<svg version="1.0" xmlns="http://www.w3.org/2000/svg"
 width="154.000000pt" height="92.000000pt" viewBox="0 0 154.000000 92.000000"
 preserveAspectRatio="xMidYMid meet">

<g transform="translate(0.000000,92.000000) scale(0.100000,-0.100000)"
fill="#000000" stroke="none">
<path d="M725 901 c-21 -5 -30 -12 -30 -26 0 -30 55 -28 66 2 10 27 3 31 -36
24z"/>
<path d="M671 873 c-1 -30 -4 -33 -31 -33 -25 0 -32 -6 -50 -47 -11 -26 -33
-59 -48 -73 -16 -14 -19 -18 -9 -10 17 13 16 8 -7 -37 -14 -28 -30 -54 -36
-58 -6 -4 -7 -11 -4 -17 4 -6 0 -15 -7 -20 -9 -6 -10 -11 -3 -14 8 -3 4 -19
-9 -49 -18 -38 -36 -55 -115 -105 -102 -65 -131 -76 -89 -32 15 16 25 31 22
34 -6 6 95 111 150 156 22 18 -9 -4 -70 -48 -60 -45 -135 -99 -165 -120 -30
-22 -68 -50 -85 -62 -16 -12 -25 -16 -20 -8 5 8 -6 2 -24 -13 -19 -16 -40 -26
-49 -22 -12 4 -13 3 -2 -10 7 -8 18 -15 25 -15 7 0 28 -11 47 -24 24 -16 40
-21 50 -15 9 5 45 8 82 6 36 -1 66 1 66 5 0 4 6 5 13 3 7 -3 19 12 30 38 18
45 72 117 88 117 5 0 7 -10 5 -22 -3 -13 -5 -26 -5 -30 -1 -5 -9 -8 -18 -8
-14 0 -15 -2 -4 -9 10 -7 11 -16 4 -37 -7 -21 -22 -33 -61 -49 -56 -23 -90
-47 -56 -41 19 4 83 -38 73 -49 -8 -7 -70 15 -90 31 -8 8 -24 14 -35 14 -11 0
-24 4 -29 9 -6 5 -21 12 -35 16 -21 7 -23 6 -13 -7 7 -8 10 -27 7 -44 -3 -21
-2 -25 5 -14 5 8 7 18 5 22 -19 30 60 -20 158 -100 22 -17 44 -32 50 -32 5 0
6 -4 3 -10 -4 -6 -78 -10 -191 -10 -157 0 -184 -2 -184 -15 0 -13 90 -15 753
-15 413 0 758 4 766 9 33 21 -4 31 -115 31 -67 0 -114 4 -114 10 0 14 40 37
78 45 25 5 32 12 32 30 0 13 -6 26 -12 28 -7 3 -2 6 11 6 23 1 23 2 8 19 -10
10 -17 29 -17 41 0 12 -4 20 -10 16 -5 -3 -16 20 -25 52 -9 32 -21 67 -26 78
-5 11 -10 78 -12 150 l-2 130 -27 12 c-24 10 -27 16 -22 45 4 25 3 29 -5 18
-6 -8 -11 -23 -11 -32 0 -14 -9 -18 -40 -18 -22 0 -40 -4 -40 -10 0 -5 5 -10
12 -10 6 0 9 -3 5 -6 -3 -4 -22 4 -42 16 -20 12 -39 20 -42 16 -3 -3 7 -10 23
-17 l29 -11 -29 -15 c-24 -12 -30 -13 -37 -1 -5 7 -6 22 -2 33 3 11 5 25 5 30
-1 6 -5 27 -8 48 -4 24 -2 37 5 37 27 0 2 26 -34 35 -38 11 -40 12 -38 50 l2
40 -11 -38 c-9 -33 -14 -38 -37 -37 -53 4 -73 0 -68 -12 6 -19 -11 -48 -30
-48 -12 0 -13 -3 -3 -15 10 -12 9 -16 -3 -21 -9 -3 -14 -11 -11 -17 7 -20 -12
-39 -40 -40 -14 -1 -26 -5 -26 -9 0 -5 -11 -8 -25 -8 -16 0 -25 6 -25 16 0 11
6 15 20 11 17 -4 18 -2 9 14 -5 10 -15 19 -21 19 -7 0 -9 19 -6 54 l5 55 -36
3 c-32 3 -37 6 -42 38 l-6 35 -2 -32z m-31 -133 c0 -5 -12 -10 -26 -10 -14 0
-23 4 -19 10 3 6 15 10 26 10 10 0 19 -4 19 -10z m330 -11 c0 -11 -31 -12 -56
-2 -16 6 -16 7 2 13 22 8 54 1 54 -11z m-260 1 c0 -5 -6 -10 -14 -10 -8 0 -18
5 -21 10 -3 6 3 10 14 10 12 0 21 -4 21 -10z m356 -12 c4 -5 -4 -8 -17 -6 -12
1 -24 8 -26 15 -5 14 34 6 43 -9z m-222 -63 c-7 -17 -7 -17 -31 -8 -16 6 -15
8 7 14 14 4 26 7 27 8 1 1 0 -6 -3 -14z m-35 -16 c24 -9 31 -16 26 -28 -4 -9
-11 -27 -15 -41 -15 -47 -42 -90 -56 -90 -17 0 -17 7 -3 49 9 24 9 35 0 44
-15 15 -14 64 2 70 6 3 12 6 13 6 1 1 15 -4 33 -10z m374 -29 c-3 -11 -13 -20
-22 -21 -9 0 -11 -3 -5 -5 9 -4 8 -13 -3 -34 -15 -31 -27 -37 -38 -20 -3 6 -1
10 6 10 10 0 10 3 1 12 -22 22 -14 56 16 66 42 16 51 14 45 -8z m-573 -20 c0
-5 -24 -10 -52 -10 -38 0 -49 3 -38 10 20 13 90 13 90 0z m340 0 c11 -7 -2
-10 -43 -10 -36 0 -56 4 -52 10 8 13 75 13 95 0z m290 0 c0 -5 -4 -10 -9 -10
-6 0 -13 5 -16 10 -3 6 1 10 9 10 9 0 16 -4 16 -10z m-525 -10 c16 -7 13 -9
-17 -9 -20 -1 -40 4 -43 9 -7 12 32 12 60 0z m352 -16 c-3 -3 -12 -4 -19 -1
-8 3 -5 6 6 6 11 1 17 -2 13 -5z m58 -54 c3 -5 -1 -10 -10 -10 -9 0 -13 5 -10
10 3 6 8 10 10 10 2 0 7 -4 10 -10z m90 -20 c4 -6 -7 -10 -24 -10 -17 0 -31 5
-31 10 0 6 11 10 24 10 14 0 28 -4 31 -10z m-85 -14 c0 -3 -4 -8 -10 -11 -5
-3 -10 -1 -10 4 0 6 5 11 10 11 6 0 10 -2 10 -4z m-358 -37 c-3 -19 -7 -26
-12 -19 -8 14 -2 50 9 50 4 0 5 -14 3 -31z m-212 -73 c0 -18 -22 -26 -71 -26
-50 0 -51 17 -1 25 20 4 42 8 47 10 20 7 25 5 25 -9z m340 -1 c0 -12 -13 -15
-60 -15 -33 0 -60 4 -60 9 0 14 20 19 73 20 35 1 47 -3 47 -14z m-196 -11 c51
-9 60 -29 10 -21 -21 4 -49 7 -61 7 -16 0 -21 4 -16 16 3 8 11 13 19 10 7 -3
29 -8 48 -12z m286 -4 c0 -5 -5 -10 -11 -10 -5 0 -7 5 -4 10 3 6 8 10 11 10 2
0 4 -4 4 -10z m76 -21 c6 -10 -2 -11 -33 -3 -13 4 -23 10 -23 14 0 10 49 0 56
-11z m-207 -8 c11 -7 9 -11 -8 -21 -17 -9 -26 -9 -38 1 -13 12 -13 14 4 20 24
10 26 10 42 0z m326 -11 c3 -5 -3 -10 -14 -10 -10 0 -21 -5 -23 -12 -3 -8 -13
-8 -34 -3 l-29 9 33 4 c17 2 32 7 32 13 0 12 27 12 35 -1z m-280 -22 c-4 -13
-9 -31 -11 -40 -7 -23 -17 -23 -39 2 -17 19 -17 20 6 39 33 28 52 27 44 -1z
m105 -29 c8 -34 9 -54 2 -61 -7 -7 -15 8 -26 45 -19 67 -19 67 -2 67 9 0 19
-20 26 -51z m-203 24 c4 -11 -65 -59 -73 -50 -3 2 7 19 22 36 26 31 44 36 51
14z m248 7 c-4 -6 6 -10 24 -10 43 0 46 -15 7 -39 -43 -27 -46 -27 -46 10 0
17 -4 28 -10 24 -11 -7 -14 8 -3 18 10 11 35 8 28 -3z m-925 -20 c-20 -13 -47
-13 -55 0 -4 6 9 10 32 10 28 0 34 -3 23 -10z m1050 -7 c0 -19 -37 -101 -52
-116 -21 -21 -64 -22 -72 -1 -14 37 -5 55 47 89 51 33 77 43 77 28z m-327 -31
c22 -23 26 -34 21 -60 -4 -18 -11 -32 -15 -32 -5 0 -35 14 -65 32 l-57 31 34
28 c43 36 49 36 82 1z m93 -4 c-1 -13 3 -26 9 -30 12 -9 -4 -39 -25 -46 -9 -3
-11 1 -7 12 4 10 7 36 7 57 0 22 4 38 9 35 4 -3 8 -16 7 -28z m-556 -15 c0
-25 -1 -26 -20 -8 -21 19 -18 35 6 35 9 0 14 -10 14 -27z m-20 -22 c19 -16 32
-32 28 -36 -7 -8 -76 44 -77 58 -2 14 15 7 49 -22z m615 9 c3 -5 1 -10 -4 -10
-6 0 -11 5 -11 10 0 6 2 10 4 10 3 0 8 -4 11 -10z m-170 -54 c24 -19 13 -21
-16 -3 -17 10 -23 10 -26 0 -3 -7 -18 -13 -34 -13 -25 0 -29 4 -29 28 0 16 3
31 6 35 7 7 66 -21 99 -47z m-289 28 c-3 -9 -6 -20 -6 -25 0 -14 -83 -6 -87 8
-4 12 43 30 81 32 13 1 16 -4 12 -15z m78 0 c13 -5 13 -8 1 -20 -19 -19 -25
-18 -25 6 0 22 1 23 24 14z m429 -13 c6 -26 2 -29 -29 -23 -24 4 -24 5 -7 23
23 23 30 23 36 0z m-338 -21 c3 -5 1 -10 -4 -10 -6 0 -11 5 -11 10 0 6 2 10 4
10 3 0 8 -4 11 -10z m515 0 c0 -5 -4 -10 -10 -10 -5 0 -10 5 -10 10 0 6 5 10
10 10 6 0 10 -4 10 -10z"/>
<path d="M810 781 c0 -5 9 -7 20 -4 11 3 20 7 20 9 0 2 -9 4 -20 4 -11 0 -20
-4 -20 -9z"/>
<path d="M1134 737 c16 -20 30 -37 33 -37 7 0 -36 58 -49 66 -7 4 1 -9 16 -29z"/>
<path d="M462 660 c-18 -17 -29 -30 -24 -30 5 0 21 14 37 30 37 38 30 38 -13
0z"/>
<path d="M389 593 l-24 -28 28 24 c15 14 27 26 27 28 0 8 -8 1 -31 -24z"/>
<path d="M324 538 l-29 -33 33 29 c30 28 37 36 29 36 -2 0 -16 -15 -33 -32z"/>
<path d="M404 508 l-29 -33 33 29 c30 28 37 36 29 36 -2 0 -16 -15 -33 -32z"/>
<path d="M254 478 l-29 -33 33 29 c30 28 37 36 29 36 -2 0 -16 -15 -33 -32z"/>
<path d="M319 433 l-24 -28 28 24 c25 23 32 31 24 31 -2 0 -14 -12 -28 -27z"/>
<path d="M189 423 l-24 -28 28 24 c15 14 27 26 27 28 0 8 -8 1 -31 -24z"/>
<path d="M1368 394 c-4 -3 -1 -13 7 -21 8 -8 15 -23 15 -32 0 -16 6 -18 48
-13 56 6 56 5 47 31 -5 17 -15 21 -55 21 -27 0 -50 5 -52 11 -2 5 -6 7 -10 3z"/>
<path d="M124 368 l-19 -23 23 19 c21 18 27 26 19 26 -2 0 -12 -10 -23 -22z"/>
</g>
</svg>
